<?xml version="1.0" encoding="utf-8"?>
<!-- Generator: Adobe Illustrator 21.1.0, SVG Export Plug-In . SVG Version: 6.00 Build 0)  -->
<svg version="1.1" id="Layer_1" xmlns="http://www.w3.org/2000/svg" xmlns:xlink="http://www.w3.org/1999/xlink" x="0px" y="0px"
	 viewBox="0 0 1920 1080" style="enable-background:new 0 0 1920 1080;" xml:space="preserve">
<style type="text/css">
	.st0{fill:none;}
	.st1{fill:#FFFFFF;}
	.st2{fill:none;stroke:#FFFFFF;stroke-miterlimit:10;}
	.st3{fill:none;stroke:#CCCCCC;stroke-width:2;}
	.st4{fill:#6A7247;}
	.st5{font-family:'MrsEavesOT-Roman';}
	.st6{font-size:48px;}
	.st7{fill:#7E1E33;stroke:#F9AD26;stroke-miterlimit:10;}
	.st8{font-size:72px;}
	.st9{clip-path:url(#SVGID_2_);}
	.st10{enable-background:new    ;}
	.st11{fill:#646464;}
	.st12{clip-path:url(#SVGID_4_);}
	.st13{clip-path:url(#SVGID_6_);}
	.st14{clip-path:url(#SVGID_8_);}
	.st15{clip-path:url(#SVGID_10_);}
	.st16{clip-path:url(#SVGID_12_);}
	.st17{clip-path:url(#SVGID_14_);}
	.st18{clip-path:url(#SVGID_16_);}
	.st19{fill:url(#video_2_);}
	.st20{fill:#2699FB;}
	.st21{clip-path:url(#SVGID_18_);}
	.st22{fill:#F1F8FE;}
	.st23{opacity:0.425;fill:#7FC4FD;enable-background:new    ;}
	.st24{clip-path:url(#SVGID_20_);}
	.st25{fill:#FCFCFC;}
	.st26{fill:#FAFAFA;}
	.st27{fill:#DDEEFC;}
	.st28{fill:#95989A;}
	.st29{fill:none;stroke:#7FC4FD;}
	.st30{clip-path:url(#SVGID_22_);}
	.st31{clip-path:url(#SVGID_22_);fill:url(#video_3_);}
	.st32{fill:none;stroke:#FFFFFF;stroke-width:4;stroke-miterlimit:10;}
	.st33{fill:none;stroke:url(#pattern_2);stroke-width:4;}
	.st34{fill:none;stroke:url(#SVGID_23_);stroke-width:4;}
	.st35{fill:url(#SVGID_24_);}
	.st36{font-family:'MrEavesModOT-Reg';}
	.st37{font-size:24px;}
	.st38{fill:url(#SVGID_25_);}
	.st39{fill:url(#SVGID_26_);}
	.st40{fill:url(#SVGID_27_);}
	.st41{fill:url(#SVGID_28_);}
	.st42{fill:url(#SVGID_29_);}
	.st43{fill:url(#SVGID_30_);}
	.st44{fill:url(#SVGID_31_);}
	.st45{fill:url(#SVGID_32_);}
	.st46{fill:url(#pattern_2);}
	.st47{font-family:'MrEavesModOT-Bold';}
	.st48{font-size:30px;}
	.st49{font-family:'MrEavesModOT-BoldItalic';}
	.st50{font-family:'MrEavesModOT-RegItalic';}
	.st51{fill:#F9AD26;}
	.st52{font-family:'MrEavesModOT-Heavy';}
	.st53{font-size:15.0419px;}
	.st54{fill:url(#SVGID_33_);}
	.st55{fill:url(#SVGID_34_);}
	.st56{fill:url(#SVGID_35_);}
	.st57{fill:url(#SVGID_36_);}
	.st58{font-size:32.384px;}
	.st59{fill:url(#SVGID_37_);}
	.st60{font-size:33.9713px;}
	.st61{fill:url(#SVGID_38_);}
	.st62{letter-spacing:14;}
	.st63{fill:url(#SVGID_39_);}
	.st64{letter-spacing:34;}
	.st65{fill:url(#SVGID_40_);}
	.st66{fill:url(#SVGID_41_);}
	.st67{letter-spacing:23;}
	.st68{fill:url(#SVGID_42_);}
	.st69{fill:url(#SVGID_43_);}
	.st70{font-size:28.5983px;}
	.st71{fill:url(#SVGID_44_);}
	.st72{fill:url(#SVGID_45_);}
	.st73{fill:url(#SVGID_46_);}
	.st74{letter-spacing:30;}
	.st75{fill:url(#SVGID_47_);}
	.st76{fill:url(#SVGID_48_);}
	.st77{font-family:'MrsEavesOT-Bold';}
	.st78{fill:none;stroke:#F9AD26;stroke-miterlimit:10;}
</style>
<pattern  x="-2077.3" y="-111.2" width="1400" height="787.5" patternUnits="userSpaceOnUse" id="pattern" viewBox="0 -1093.8 1400 787.5" style="overflow:visible;">
	<g>
		<rect y="-1093.8" class="st0" width="1400" height="787.5"/>
		
			<image style="overflow:visible;enable-background:new    ;" width="1400" height="1400" xlink:href="2353B81F50968334.jpg"  transform="matrix(1 0 0 -1 0 0)">
		</image>
	</g>
</pattern>
<pattern  x="-2077.3" y="-111.2" width="1400" height="787.5" patternUnits="userSpaceOnUse" id="pattern_2" viewBox="0 -1093.8 1400 787.5" style="overflow:visible;">
	<g>
		<rect y="-1093.8" class="st0" width="1400" height="787.5"/>
		
			<image style="overflow:visible;enable-background:new    ;" width="1400" height="1400" xlink:href="2353B81F50968335.jpg"  transform="matrix(1 0 0 -1 0 0)">
		</image>
	</g>
</pattern>
<pattern  x="-2077.3" y="-111.2" width="787.1" height="1400" patternUnits="userSpaceOnUse" id="pattern_4" viewBox="306.4 -1400 787.1 1400" style="overflow:visible;">
	<g>
		<rect x="306.4" y="-1400" class="st0" width="787.1" height="1400"/>
		
			<image style="overflow:visible;enable-background:new    ;" width="1400" height="1400" xlink:href="2353B81F50968333.jpg"  transform="matrix(1 0 0 -1 0 0)">
		</image>
	</g>
</pattern>
<pattern  x="-2077.3" y="-111.2" width="375.8" height="1400" patternUnits="userSpaceOnUse" id="pattern_5" viewBox="512.1 -1400 375.8 1400" style="overflow:visible;">
	<g>
		<rect x="512.1" y="-1400" class="st0" width="375.8" height="1400"/>
		
			<image style="overflow:visible;enable-background:new    ;" width="1400" height="1400" xlink:href="2353B81F5096833C.jpg"  transform="matrix(1 0 0 -1 0 0)">
		</image>
	</g>
</pattern>
<image style="overflow:visible;" width="900" height="506" xlink:href="images/hogwarts-castle-quidditch-field.jpg"  transform="matrix(2.1319 0 0 2.1319 0 0)">
</image>
<image style="overflow:visible;" width="1217" height="685" xlink:href="2353B81F5096833D.jpg"  transform="matrix(1.5785 0 0 1.5785 -1.021202e-02 -1192.5258)">
</image>
<image style="overflow:visible;" width="1280" height="720" xlink:href="images/maxresdefault.jpg"  transform="matrix(1.5 0 0 1.5 -2077.3315 0)">
</image>
<image style="overflow:visible;" width="1200" height="675" xlink:href="2353B81F50968336.jpg"  transform="matrix(1.6 0 0 1.6 -2077.3315 -1191.2452)">
</image>
<rect x="-2077.3" y="-1191.2" class="st0" width="1920" height="1080"/>
<text transform="matrix(1 0 0 1 -1528.3315 -687.2452)" class="st1" style="font-family:'MrsEavesPetiteCapsOT'; font-size:104.4215px;">Welcome to Hogwarts</text>
<g id="Rectangle_1">
	<path class="st2" d="M-1239.4-601.6h250.1c2.2,0,4,1.8,4,4v70.8c0,2.2-1.8,4-4,4h-250.1c-2.2,0-4-1.8-4-4v-70.8
		C-1243.4-599.8-1241.7-601.6-1239.4-601.6z"/>
	<path class="st3" d="M-1239.4-600.6h250.1c1.7,0,3,1.3,3,3v70.8c0,1.7-1.3,3-3,3h-250.1c-1.7,0-3-1.3-3-3v-70.8
		C-1242.4-599.2-1241.1-600.6-1239.4-600.6z"/>
</g>
<text transform="matrix(1 0 0 1 -1144.6611 -557.3693)" class="st1" style="font-family:'Arial-BoldMT'; font-size:18.8131px;">Enter</text>
<rect x="-2077.3" y="0" class="st0" width="1920" height="1080"/>
<text transform="matrix(1 0 0 1 -1305.0459 458.9995)" class="st1" style="font-family:'Georgia'; font-size:51px;">Choose a House:</text>
<rect class="st0" width="1920" height="1080"/>
<path id="Rectangle_3" class="st4" d="M167.1,775h942.5c9.4,0,17.1,7.7,17.1,17.1V1080H150V792.1C150,782.7,157.7,775,167.1,775z"/>
<text transform="matrix(1 0 0 1 149.9995 238.3981)" class="st1 st5 st6">Gryffindor</text>
<path id="Path_3_2_" class="st7" d="M1734.9,559.7l-161.4,86.5c-19.2,10.3-42.2,10.1-61.2-0.5l-154.6-85.8
	c-20.3-11.3-32.9-32.7-32.9-55.9V128.5c0-35.3,28.6-63.9,63.9-63.9h316.1c35.3,0,63.9,28.6,63.9,63.9v374.8
	C1768.6,526.9,1755.7,548.6,1734.9,559.7z"/>
<text transform="matrix(1 0 0 1 149.9995 183.0002)" class="st1 st5 st8">Harry Potter</text>
<rect y="-1191.2" class="st0" width="1920" height="1080"/>
<text transform="matrix(1 0 0 1 607.0566 -779.6967)" class="st1" style="font-family:'ArialMT'; font-size:20px;">Lorem ipsum dolor sit amet, consectetur adipisicing elit, sed do eiusmod tempor </text>
<text transform="matrix(1 0 0 1 593.1353 -749.6967)" class="st1" style="font-family:'ArialMT'; font-size:20px;">incididunt ut labore et dolore magna aliqua. Ut enim ad minim veniam, quis nostrud</text>
<rect x="248" y="-652.2" class="st0" width="1446" height="626"/>
<text transform="matrix(1 0 0 1 357.2024 -234.2463)" class="st1" style="font-family:'Arial-BoldMT'; font-size:20px;">Harry Potter</text>
<text transform="matrix(1 0 0 1 881.1978 -234.2463)" class="st1" style="font-family:'Arial-BoldMT'; font-size:20px;">Hermione Granger</text>
<text transform="matrix(1 0 0 1 1460.9402 -234.2463)" class="st1" style="font-family:'Arial-BoldMT'; font-size:20px;">Ron Weasley</text>
<text transform="matrix(1 0 0 1 871.0029 -820.8476)" class="st1" style="font-family:'Georgia'; font-size:38px;">Gryffindor</text>
<rect id="Rectangle_2_2_" x="248" y="-164.7" width="334" height="53.1"/>
<rect id="Rectangle_2_3_" x="802" y="-164.7" width="334" height="53.1"/>
<rect id="Rectangle_2_4_" x="1356" y="-166.2" width="334" height="53.1"/>
<g>
	<defs>
		<rect id="SVGID_1_" x="-2077.3" y="1218.8" width="375" height="667"/>
	</defs>
	<clipPath id="SVGID_2_">
		<use xlink:href="#SVGID_1_"  style="overflow:visible;"/>
	</clipPath>
	<g id="iPhone_6_7_1" class="st9">
		<rect x="-2077.3" y="1218.8" class="st1" width="375" height="667"/>
		<g id="Header" transform="translate(-227.01 1547.977)">
			<text transform="matrix(1 0 0 1 -1794.4734 -65.2112)" class="st11" style="font-family:'Georgia'; font-size:27px;">Welcome to Hogwarts</text>
			<g id="Button_2_" transform="translate(372.704 65.253)">
				<g id="Rectangle_1_2_">
					<path class="st1" d="M-2073.3-90.2h86.8c2.2,0,4,1.8,4,4v20.9c0,2.2-1.8,4-4,4h-86.8c-2.2,0-4-1.8-4-4v-20.9
						C-2077.3-88.4-2075.5-90.2-2073.3-90.2z"/>
					<path class="st3" d="M-2073.3-89.2h86.8c1.7,0,3,1.3,3,3v20.9c0,1.7-1.3,3-3,3h-86.8c-1.7,0-3-1.3-3-3v-20.9
						C-2076.3-87.9-2075-89.2-2073.3-89.2z"/>
				</g>
				<text transform="matrix(1 0 0 1 -2039.9518 -74.3602)" class="st11" style="font-family:'Arial-BoldMT'; font-size:5px;">Enter</text>
			</g>
		</g>
	</g>
</g>
<g>
	<defs>
		<rect id="SVGID_3_" x="-1595.9" y="1218.8" width="375" height="667"/>
	</defs>
	<clipPath id="SVGID_4_">
		<use xlink:href="#SVGID_3_"  style="overflow:visible;"/>
	</clipPath>
	<g class="st12">
		<rect x="-1595.9" y="1218.8" class="st1" width="375" height="667"/>
		<text transform="matrix(1 0 0 1 -1509.2721 1482.7889)" class="st11" style="font-family:'Georgia'; font-size:27px;">Choose a House:</text>
		<g>
			<defs>
				<rect id="SVGID_5_" x="-1544" y="1525.4" width="271.5" height="181.1"/>
			</defs>
			<clipPath id="SVGID_6_">
				<use xlink:href="#SVGID_5_"  style="overflow:visible;"/>
			</clipPath>
			<g class="st13">
				<g>
					<g transform="translate(-44.884 -294.653)">
						<defs>
							<rect id="SVGID_7_" x="-3671" y="204.4" width="125.5" height="77.1"/>
						</defs>
						<clipPath id="SVGID_8_">
							<use xlink:href="#SVGID_7_"  style="overflow:visible;"/>
						</clipPath>
						<g id="Repeat_Grid_3" transform="translate(44.884 294.653)" class="st14">
							<g transform="translate(-44.884 -294.653)">
								<g id="Rectangle_242" transform="translate(44.884 294.653)">
									<path class="st1" d="M-3711.9-90.2h117.5c2.2,0,4,1.8,4,4v69.1c0,2.2-1.8,4-4,4h-117.5c-2.2,0-4-1.8-4-4v-69.1
										C-3715.9-88.4-3714.1-90.2-3711.9-90.2z"/>
									<path class="st3" d="M-3711.9-89.2h117.5c1.7,0,3,1.3,3,3v69.1c0,1.7-1.3,3-3,3h-117.5c-1.7,0-3-1.3-3-3v-69.1
										C-3714.9-87.9-3713.6-89.2-3711.9-89.2z"/>
								</g>
							</g>
						</g>
						<text transform="matrix(1 0 0 1 -3633.53 246.1779)" class="st11" style="font-family:'Arial-BoldMT'; font-size:10px;">Gryffindor</text>
					</g>
					<g>
						<g transform="translate(101.116 -294.653)">
							<defs>
								<rect id="SVGID_9_" x="-3626.1" y="499.1" width="125.5" height="77.1"/>
							</defs>
							<clipPath id="SVGID_10_">
								<use xlink:href="#SVGID_9_"  style="overflow:visible;"/>
							</clipPath>
							<g id="Repeat_Grid_3-2" transform="translate(44.884 294.653)" class="st15">
								<g transform="translate(-44.884 -294.653)">
									<g id="Rectangle_242-2" transform="translate(44.884 294.653)">
										<path class="st1" d="M-3667,204.4h117.5c2.2,0,4,1.8,4,4v69.1c0,2.2-1.8,4-4,4H-3667c-2.2,0-4-1.8-4-4v-69.1
											C-3671,206.2-3669.2,204.4-3667,204.4z"/>
										<path class="st3" d="M-3667,205.4h117.5c1.7,0,3,1.3,3,3v69.1c0,1.7-1.3,3-3,3H-3667c-1.7,0-3-1.3-3-3v-69.1
											C-3670,206.8-3668.7,205.4-3667,205.4z"/>
									</g>
								</g>
							</g>
							<text transform="matrix(1 0 0 1 -3585.5972 540.8309)" class="st11" style="font-family:'Arial-BoldMT'; font-size:10px;">Slytherin</text>
						</g>
						<g id="iPhone_6_7_2">
							<g transform="translate(-44.884 -196.653)">
								<defs>
									<rect id="SVGID_11_" x="-3727.2" y="793.7" width="125.5" height="77.1"/>
								</defs>
								<clipPath id="SVGID_12_">
									<use xlink:href="#SVGID_11_"  style="overflow:visible;"/>
								</clipPath>
								<g id="Repeat_Grid_3-3" transform="translate(44.884 294.653)" class="st16">
									<g transform="translate(-44.884 -294.653)">
										<g id="Rectangle_242-3" transform="translate(44.884 294.653)">
											<path class="st1" d="M-3768.1,499.1h117.5c2.2,0,4,1.8,4,4v69.1c0,2.2-1.8,4-4,4h-117.5c-2.2,0-4-1.8-4-4v-69.1
												C-3772.1,500.9-3770.3,499.1-3768.1,499.1z"/>
											<path class="st3" d="M-3768.1,500.1h117.5c1.7,0,3,1.3,3,3v69.1c0,1.7-1.3,3-3,3h-117.5c-1.7,0-3-1.3-3-3v-69.1
												C-3771.1,501.4-3769.8,500.1-3768.1,500.1z"/>
										</g>
									</g>
								</g>
								<text transform="matrix(1 0 0 1 -3688.9231 835.484)" class="st11" style="font-family:'Arial-BoldMT'; font-size:10px;">Hufflepuff</text>
							</g>
							<g id="Repeat_Grid_4" transform="translate(2171.884 1615.653)">
								<g transform="translate(101.116 -196.653)">
									<defs>
										<rect id="SVGID_13_" x="-3682.4" y="990.4" width="125.5" height="77.1"/>
									</defs>
									<clipPath id="SVGID_14_">
										<use xlink:href="#SVGID_13_"  style="overflow:visible;"/>
									</clipPath>
									<g id="Repeat_Grid_3-4" transform="translate(44.884 294.653)" class="st17">
										<g transform="translate(-44.884 -294.653)">
											<g id="Rectangle_242-4" transform="translate(44.884 294.653)">
												<path class="st1" d="M-3723.2,695.7h117.5c2.2,0,4,1.8,4,4v69.1c0,2.2-1.8,4-4,4h-117.5c-2.2,0-4-1.8-4-4v-69.1
													C-3727.2,697.5-3725.5,695.7-3723.2,695.7z"/>
												<path class="st3" d="M-3723.2,696.7h117.5c1.7,0,3,1.3,3,3v69.1c0,1.7-1.3,3-3,3h-117.5c-1.7,0-3-1.3-3-3v-69.1
													C-3726.2,698.1-3724.9,696.7-3723.2,696.7z"/>
											</g>
										</g>
									</g>
									
										<text transform="matrix(1 0 0 1 -3646.2822 1032.1371)" class="st11" style="font-family:'Arial-BoldMT'; font-size:10px;">Ravenclaw</text>
								</g>
							</g>
						</g>
					</g>
				</g>
			</g>
		</g>
	</g>
</g>
<g>
	<defs>
		<rect id="SVGID_15_" x="-1117.3" y="1216.4" width="375" height="667"/>
	</defs>
	<clipPath id="SVGID_16_">
		<use xlink:href="#SVGID_15_"  style="overflow:visible;"/>
	</clipPath>
	<g class="st18">
		<rect x="-1117.3" y="1216.4" class="st1" width="375" height="667"/>
		
			<pattern  id="video_2_" xlink:href="#pattern_4" patternTransform="matrix(5.751643e-02 0 0 -5.751643e-02 -2557.0684 -9204.5811)">
		</pattern>
		<rect id="video" x="-966.5" y="1259.4" class="st19" width="74.4" height="80.5"/>
		<text transform="matrix(1 0 0 1 -1018.2563 1392.6136)" class="st20" style="font-family:'ArialMT'; font-size:10px;">Lorem ipsum dolor sit amet, consectetur </text>
		<text transform="matrix(1 0 0 1 -1015.4883 1404.6136)" class="st20" style="font-family:'ArialMT'; font-size:10px;">adipisicing elit, sed do eiusmod tempor </text>
		<text transform="matrix(1 0 0 1 -1031.3403 1416.6136)" class="st20" style="font-family:'ArialMT'; font-size:10px;">incididunt ut labore et dolore magna aliqua. Ut</text>
		<text transform="matrix(1 0 0 1 -962.9717 1366.8427)" class="st11" style="font-family:'Georgia'; font-size:14px;">Gryffindor</text>
		<g id="iPhone_6_7_3">
			<defs>
				<rect id="SVGID_17_" x="-1062.3" y="1464.4" width="274.8" height="484"/>
			</defs>
			<clipPath id="SVGID_18_">
				<use xlink:href="#SVGID_17_"  style="overflow:visible;"/>
			</clipPath>
			<g id="Repeat_Grid_5" transform="translate(4295 1529)" class="st21">
				<g id="Group_7" transform="translate(-57 -248)">
					<rect id="Rectangle_243" x="-5300.3" y="183.4" class="st22" width="109.8" height="122.6"/>
					<path id="Union_2" class="st23" d="M-5271.7,264.3v-6.6c0-7.2,11.8-13.2,26.3-13.2c14.5,0,26.3,5.9,26.3,13.2v6.6H-5271.7z
						 M-5258.6,224.9c0-7.3,5.9-13.2,13.1-13.2s13.2,5.9,13.2,13.1c0,7.3-5.9,13.2-13.1,13.2c0,0,0,0,0,0
						C-5252.7,238-5258.6,232.1-5258.6,224.9z"/>
					<text transform="matrix(1 0 0 1 -5282.9004 327.4476)" class="st20" style="font-family:'Arial-BoldMT'; font-size:13px;">Harry Potter</text>
				</g>
				<g id="Group_7-2" transform="translate(96 -248)">
					<rect id="Rectangle_243-2" x="-5300.3" y="183.4" class="st22" width="109.8" height="122.6"/>
					<path id="Union_2-2" class="st23" d="M-5271.7,264.3v-6.6c0-7.2,11.8-13.2,26.3-13.2c14.5,0,26.3,5.9,26.3,13.2v6.6H-5271.7z
						 M-5258.6,224.9c0-7.3,5.9-13.2,13.1-13.2s13.2,5.9,13.2,13.1c0,7.3-5.9,13.2-13.1,13.2c0,0,0,0,0,0
						C-5252.7,238-5258.6,232.1-5258.6,224.9z"/>
					<text transform="matrix(1 0 0 1 -5285.6704 327.4476)" class="st20" style="font-family:'Arial-BoldMT'; font-size:13px;">Ron Weasley</text>
				</g>
				<g id="Group_7-3" transform="translate(-57 -81)">
					<rect id="Rectangle_243-3" x="-5300.3" y="183.4" class="st22" width="109.8" height="122.6"/>
					<path id="Union_2-3" class="st23" d="M-5271.7,264.3v-6.6c0-7.2,11.8-13.2,26.3-13.2c14.5,0,26.3,5.9,26.3,13.2v6.6H-5271.7z
						 M-5258.6,224.9c0-7.3,5.9-13.2,13.1-13.2s13.2,5.9,13.2,13.1c0,7.3-5.9,13.2-13.1,13.2c0,0,0,0,0,0
						C-5252.7,238-5258.6,232.1-5258.6,224.9z"/>
					<text transform="matrix(1 0 0 1 -5302.4033 327.4476)" class="st20" style="font-family:'Arial-BoldMT'; font-size:13px;">Hermione Granger</text>
				</g>
				<g id="Group_7-4" transform="translate(96 -81)">
					<rect id="Rectangle_243-4" x="-5300.3" y="183.4" class="st22" width="109.8" height="122.6"/>
					<path id="Union_2-4" class="st23" d="M-5271.7,264.3v-6.6c0-7.2,11.8-13.2,26.3-13.2c14.5,0,26.3,5.9,26.3,13.2v6.6H-5271.7z
						 M-5258.6,224.9c0-7.3,5.9-13.2,13.1-13.2s13.2,5.9,13.2,13.1c0,7.3-5.9,13.2-13.1,13.2c0,0,0,0,0,0
						C-5252.7,238-5258.6,232.1-5258.6,224.9z"/>
					<text transform="matrix(1 0 0 1 -5305.9966 327.4476)" class="st20" style="font-family:'Arial-BoldMT'; font-size:13px;">Neville Longbottom</text>
				</g>
				<g id="Group_7-5" transform="translate(-57 86)">
					<rect id="Rectangle_243-5" x="-5300.3" y="183.4" class="st22" width="109.8" height="122.6"/>
					<path id="Union_2-5" class="st23" d="M-5271.7,264.3v-6.6c0-7.2,11.8-13.2,26.3-13.2c14.5,0,26.3,5.9,26.3,13.2v6.6H-5271.7z
						 M-5258.6,224.9c0-7.3,5.9-13.2,13.1-13.2s13.2,5.9,13.2,13.1c0,7.3-5.9,13.2-13.1,13.2c0,0,0,0,0,0
						C-5252.7,238-5258.6,232.1-5258.6,224.9z"/>
					<text transform="matrix(1 0 0 1 -5282.9004 327.4476)" class="st20" style="font-family:'Arial-BoldMT'; font-size:13px;">Harry Potter</text>
				</g>
				<g id="Group_7-6" transform="translate(96 86)">
					<rect id="Rectangle_243-6" x="-5300.3" y="183.4" class="st22" width="109.8" height="122.6"/>
					<path id="Union_2-6" class="st23" d="M-5271.7,264.3v-6.6c0-7.2,11.8-13.2,26.3-13.2c14.5,0,26.3,5.9,26.3,13.2v6.6H-5271.7z
						 M-5258.6,224.9c0-7.3,5.9-13.2,13.1-13.2s13.2,5.9,13.2,13.1c0,7.3-5.9,13.2-13.1,13.2c0,0,0,0,0,0
						C-5252.7,238-5258.6,232.1-5258.6,224.9z"/>
					<text transform="matrix(1 0 0 1 -5282.9004 327.4476)" class="st20" style="font-family:'Arial-BoldMT'; font-size:13px;">Harry Potter</text>
				</g>
			</g>
		</g>
	</g>
</g>
<g>
	<defs>
		<rect id="SVGID_19_" x="-602.5" y="1217.1" width="375" height="1397"/>
	</defs>
	<clipPath id="SVGID_20_">
		<use xlink:href="#SVGID_19_"  style="overflow:visible;"/>
	</clipPath>
	<g class="st24">
		<rect x="-602.5" y="1217.1" class="st1" width="375" height="1397"/>
		<path id="Path_3_1_" class="st25" d="M-602.4,2322.3l190.8-171.2l184.1,171.2v291.8h-374.9V2322.3z"/>
		<text transform="matrix(1 0 0 1 -470.4856 1513.3379)" class="st11" style="font-family:'Georgia'; font-size:21px;">Gryffindor</text>
		<text transform="matrix(1 0 0 1 -510.1804 1486.0739)" class="st11" style="font-family:'Georgia'; font-size:34px;">Harry Potter</text>
		<g id="Group_8" transform="translate(6338.434 889.82)">
			<rect id="Rectangle_2_5_" x="-6835.5" y="367.1" class="st22" width="163.1" height="182.2"/>
			<path id="Union_1_2_" class="st23" d="M-6793,487.2v-9.8c0-10.7,17.6-19.5,39.1-19.5c21.5,0,39.1,8.8,39.1,19.5v9.8H-6793z
				 M-6773.4,428.6c0-10.8,8.7-19.5,19.5-19.5s19.5,8.7,19.5,19.5c0,10.8-8.7,19.5-19.5,19.5
				C-6764.7,448.2-6773.4,439.4-6773.4,428.6z"/>
		</g>
		<text transform="matrix(1 0 0 1 -544.4714 1553.0059)" class="st20" style="font-family:'Arial-BoldMT'; font-size:12px;">Type of Wand: </text>
		<text transform="matrix(1 0 0 1 -459.8152 1553.0059)" class="st20" style="font-family:'ArialMT'; font-size:12px;">Phoenix Feather and Dragon </text>
		<text transform="matrix(1 0 0 1 -544.4714 1569.0059)" class="st20" style="font-family:'ArialMT'; font-size:12px;">Heartstring</text>
		<text transform="matrix(1 0 0 1 -544.4714 1585.0059)" class="st20" style="font-family:'Arial-BoldMT'; font-size:12px;">Pet of choice: </text>
		<text transform="matrix(1 0 0 1 -462.4577 1585.0059)" class="st20" style="font-family:'ArialMT'; font-size:12px;">Hedwig (Owl)</text>
		<text transform="matrix(1 0 0 1 -544.4714 1601.0059)" class="st20" style="font-family:'Arial-BoldMT'; font-size:12px;">Patronus: </text>
		<text transform="matrix(1 0 0 1 -485.1335 1601.0059)" class="st20" style="font-family:'ArialMT'; font-size:12px;">Stag</text>
		<text transform="matrix(1 0 0 1 -544.4714 1617.0059)" class="st20" style="font-family:'Arial-BoldMT'; font-size:12px;">Boggart: </text>
		<text transform="matrix(1 0 0 1 -491.1452 1617.0059)" class="st20" style="font-family:'ArialMT'; font-size:12px;">Dementor</text>
		<text transform="matrix(1 0 0 1 -544.4714 1649.0059)" class="st20" style="font-family:'Arial-BoldMT'; font-size:12px;">Appears in: </text>
		<text transform="matrix(1 0 0 1 -475.1257 1649.0059)" class="st20" style="font-family:'ArialMT'; font-size:12px;">Sorcerer’s Stone, Chamber of </text>
		<text transform="matrix(1 0 0 1 -544.4714 1665.0059)" class="st20" style="font-family:'ArialMT'; font-size:12px;">Secrets, Prisoner of Askaban, Goblet of Fire, </text>
		<text transform="matrix(1 0 0 1 -544.4714 1681.0059)" class="st20" style="font-family:'ArialMT'; font-size:12px;">Order of the Phoenix, Half-Blood Prince, Deathly </text>
		<text transform="matrix(1 0 0 1 -544.4714 1697.0059)" class="st20" style="font-family:'ArialMT'; font-size:12px;">Hallows</text>
		<text transform="matrix(1 0 0 1 -544.4714 1729.0059)" class="st20" style="font-family:'Arial-BoldMT'; font-size:12px;">Family Members: </text>
		<text transform="matrix(1 0 0 1 -443.1042 1729.0059)" class="st20" style="font-family:'Arial-ItalicMT'; font-size:12px;">Lily Potter</text>
		<text transform="matrix(1 0 0 1 -389.7487 1729.0059)" class="st20" style="font-family:'ArialMT'; font-size:12px;">, </text>
		<text transform="matrix(1 0 0 1 -383.0808 1729.0059)" class="st20" style="font-family:'Arial-ItalicMT'; font-size:12px;">James Potter</text>
		<rect id="Rectangle_244" x="-549.4" y="1762.7" class="st26" width="268.9" height="230.1"/>
		<text transform="matrix(1 0 0 1 -533.5706 1789.2389)" class="st20" style="font-family:'ArialMT'; font-size:12px;">Lorem ipsum dolor sit amet, consectetur </text>
		<text transform="matrix(1 0 0 1 -533.5706 1803.2389)" class="st20" style="font-family:'ArialMT'; font-size:12px;">adipisicing elit, sed do eiusmod tempor </text>
		<text transform="matrix(1 0 0 1 -533.5706 1817.2389)" class="st20" style="font-family:'ArialMT'; font-size:12px;">incididunt ut labore et dolore magna aliqua. </text>
		<text transform="matrix(1 0 0 1 -533.5706 1831.2389)" class="st20" style="font-family:'ArialMT'; font-size:12px;">Ut enim ad minim veniam, quis nostrud </text>
		<text transform="matrix(1 0 0 1 -533.5706 1845.2389)" class="st20" style="font-family:'ArialMT'; font-size:12px;">exercitation ullamco laboris nisi ut aliquip ex </text>
		<text transform="matrix(1 0 0 1 -533.5706 1859.2389)" class="st20" style="font-family:'ArialMT'; font-size:12px;">ea commodo consequat. Duis aute irure </text>
		<text transform="matrix(1 0 0 1 -533.5706 1873.2389)" class="st20" style="font-family:'ArialMT'; font-size:12px;">dolor in reprehenderit in voluptate velit esse </text>
		<text transform="matrix(1 0 0 1 -533.5706 1887.2389)" class="st20" style="font-family:'ArialMT'; font-size:12px;">cillum dolore. Lorem ipsum dolor sit amet, </text>
		<text transform="matrix(1 0 0 1 -533.5706 1901.2389)" class="st20" style="font-family:'ArialMT'; font-size:12px;">consectetur adipisicing elit, sed do eiusmod </text>
		<text transform="matrix(1 0 0 1 -533.5706 1915.2391)" class="st20" style="font-family:'ArialMT'; font-size:12px;">tempor incididunt ut labore et dolore magna </text>
		<text transform="matrix(1 0 0 1 -533.5706 1929.2391)" class="st20" style="font-family:'ArialMT'; font-size:12px;">aliqua. Ut enim ad minim veniam, quis </text>
		<text transform="matrix(1 0 0 1 -533.5706 1943.2391)" class="st20" style="font-family:'ArialMT'; font-size:12px;">nostrud exercitation ullamco laboris nisi ut </text>
		<text transform="matrix(1 0 0 1 -533.5706 1957.2391)" class="st20" style="font-family:'ArialMT'; font-size:12px;">aliquip ex ea commodo consequat. Duis </text>
		<text transform="matrix(1 0 0 1 -533.5706 1971.2389)" class="st20" style="font-family:'ArialMT'; font-size:12px;">aute irure dolor in reprehenderit in voluptate</text>
		<path id="Path_2_1_" class="st27" d="M-602.4,2035.6V2287l192.1-50.4l182.8,50.4v-251.5H-602.4z"/>
		
			<text transform="matrix(1 0 0 1 -567.5715 2086.0737)" class="st28" style="font-family:'HelveticaNeue-Medium'; font-size:20px;">Is </text>
		
			<text transform="matrix(1 0 0 1 -546.0715 2086.0737)" class="st20" style="font-family:'HelveticaNeue-Medium'; font-size:20px;">Harry</text>
		
			<text transform="matrix(1 0 0 1 -496.0525 2086.0737)" class="st28" style="font-family:'HelveticaNeue-Medium'; font-size:20px;"> your favorite character? </text>
		<g id="Group_10" transform="translate(6317 1291)">
			
				<text transform="matrix(1 0 0 1 -6837.3711 857.0739)" class="st28" style="font-family:'HelveticaNeue-Medium'; font-size:20px;">Give </text>
			
				<text transform="matrix(1 0 0 1 -6790.3115 857.0739)" class="st20" style="font-family:'HelveticaNeue-Medium'; font-size:20px;">Gryffindor  </text>
			
				<text transform="matrix(1 0 0 1 -6686.9331 857.0739)" class="st28" style="font-family:'HelveticaNeue-Medium'; font-size:20px;">……… </text>
			
				<text transform="matrix(1 0 0 1 -6843.6714 897.0739)" class="st28" style="font-family:'HelveticaNeue-Medium'; font-size:20px;">towards the House Cup!</text>
			<g id="Group_9" transform="translate(-6554.959 -1028)">
				<g id="Input_-_Entered_Value_1_" transform="translate(6838 1922)">
					<g id="Rectangle_241_1_">
						<rect x="-6962.5" y="-63.9" class="st1" width="33.3" height="40"/>
						<rect x="-6962" y="-63.4" class="st29" width="32.3" height="39"/>
					</g>
				</g>
				<g id="Group_2_1_" transform="translate(6843.354 1926.118)">
					<text transform="matrix(1 0 0 1 -6962.4712 -45.926)" class="st20" style="font-family:'ArialMT'; font-size:20px;">10</text>
					<text transform="matrix(1 0 0 1 -6957.9414 -34.7473)" class="st11" style="font-family:'ArialMT'; font-size:10px;">pts</text>
				</g>
			</g>
		</g>
		<g id="iPhone_6_7_4">
			<defs>
				<rect id="SVGID_21_" x="-547.5" y="2336.1" width="266" height="253.9"/>
			</defs>
			<clipPath id="SVGID_22_">
				<use xlink:href="#SVGID_21_"  style="overflow:visible;"/>
			</clipPath>
			<g id="Repeat_Grid_2_1_" transform="translate(6415 2400)" class="st30">
				<g transform="translate(-1226 -840)">
					<text transform="matrix(1 0 0 1 -5717.312 794.0739)" class="st11" style="font-family:'Georgia'; font-size:20px;">Gryffindor</text>
					<g id="Group_5_1_" transform="translate(-172 519)">
						<g id="Input_-_Entered_Value-2_1_" transform="translate(1427 357)">
							<rect id="Rectangle_241-2_1_" x="-6962.5" y="-63.9" class="st0" width="57.4" height="68.9"/>
						</g>
						<g id="Group_2-2_1_" transform="translate(1436.22 364.092)">
							<text transform="matrix(1 0 0 1 -6962.3804 -32.9261)" class="st20" style="font-family:'ArialMT'; font-size:34px;">10</text>
							<text transform="matrix(1 0 0 1 -6954.6704 -14.1752)" class="st11" style="font-family:'ArialMT'; font-size:17px;">pts</text>
						</g>
					</g>
				</g>
				<g transform="translate(-1089 -840)">
					<text transform="matrix(1 0 0 1 -5710.9062 794.0739)" class="st11" style="font-family:'Georgia'; font-size:20px;">Slytherin</text>
					<g id="Group_5-2_1_" transform="translate(-172 519)">
						<g id="Input_-_Entered_Value-3_1_" transform="translate(1427 357)">
							<rect id="Rectangle_241-3_1_" x="-6962.5" y="-63.9" class="st0" width="57.4" height="68.9"/>
						</g>
						<g id="Group_2-3_1_" transform="translate(1436.22 364.092)">
							<text transform="matrix(1 0 0 1 -6962.3804 -32.9261)" class="st20" style="font-family:'ArialMT'; font-size:34px;">20</text>
							<text transform="matrix(1 0 0 1 -6954.6704 -14.1752)" class="st11" style="font-family:'ArialMT'; font-size:17px;">pts</text>
						</g>
					</g>
				</g>
				<g transform="translate(-1226 -702)">
					<text transform="matrix(1 0 0 1 -5717.312 794.0739)" class="st11" style="font-family:'Georgia'; font-size:20px;">Gryffindor</text>
					<g id="Group_5-3_1_" transform="translate(-172 519)">
						<g id="Input_-_Entered_Value-4_1_" transform="translate(1427 357)">
							<rect id="Rectangle_241-4_1_" x="-6962.5" y="-63.9" class="st0" width="57.4" height="68.9"/>
						</g>
						<g id="Group_2-4_1_" transform="translate(1436.22 364.092)">
							<text transform="matrix(1 0 0 1 -6962.3804 -32.9261)" class="st20" style="font-family:'ArialMT'; font-size:34px;">10</text>
							<text transform="matrix(1 0 0 1 -6954.6704 -14.1752)" class="st11" style="font-family:'ArialMT'; font-size:17px;">pts</text>
						</g>
					</g>
				</g>
				<g transform="translate(-1089 -702)">
					<text transform="matrix(1 0 0 1 -5710.9062 794.0739)" class="st11" style="font-family:'Georgia'; font-size:20px;">Slytherin</text>
					<g id="Group_5-4_1_" transform="translate(-172 519)">
						<g id="Input_-_Entered_Value-5_1_" transform="translate(1427 357)">
							<rect id="Rectangle_241-5_1_" x="-6962.5" y="-63.9" class="st0" width="57.4" height="68.9"/>
						</g>
						<g id="Group_2-5_1_" transform="translate(1436.22 364.092)">
							<text transform="matrix(1 0 0 1 -6962.3804 -32.9261)" class="st20" style="font-family:'ArialMT'; font-size:34px;">20</text>
							<text transform="matrix(1 0 0 1 -6954.6704 -14.1752)" class="st11" style="font-family:'ArialMT'; font-size:17px;">pts</text>
						</g>
					</g>
				</g>
			</g>
			
				<pattern  id="video_3_" xlink:href="#pattern_5" patternTransform="matrix(2.785714e-02 0 0 -2.785714e-02 1663.2025 -10417.2178)">
			</pattern>
			<rect id="video_1_" x="-434.5" y="2275.1" class="st31" width="39" height="37.6"/>
		</g>
	</g>
</g>
<image style="overflow:visible;" width="400" height="497" xlink:href="images/Layer 1.png"  transform="matrix(0.5051 0 0 0.5051 -799.3315 536.7548)">
</image>
<image style="overflow:visible;" width="383" height="461" xlink:href="images/Layer 2.png"  transform="matrix(0.5051 0 0 0.5051 -1081.0226 545.8466)">
</image>
<image style="overflow:visible;" width="368" height="468" xlink:href="images/Layer 3.png"  transform="matrix(0.5051 0 0 0.5051 -1627.3315 544.0787)">
</image>
<g>
	<path class="st32" d="M-1443.8,633.8c0.8-0.9,2-2.4,2.3-3.5c0.3-1.4-0.4-2.6-1.3-3.5c-0.6-0.7-1.1-0.6-1.8-1c-1-0.6-0.6,0-1-1
		c-0.4-1,0.1-2.5,0-3.5c-0.1-0.6-0.4-1-0.5-1.8c-0.1-0.7,0-1.2-0.3-1.8c-1-2.5-3.9-4.3-4.3-7.1c-0.3-2.6-0.2-5-1-7.3
		c-0.9-2.6-2.4-4.8-5.1-6.3c-1.1-0.7-2.3-1.1-3.5-1.5c-0.5-0.2-1.2-0.1-1.5-0.5c-0.6-0.6,0.2-0.3,0.5-1.3c0.9-2.5-2-4.9-3-6.8h-0.5
		c-0.3-0.5-0.7-1-1-1.5h-1c-0.5-0.3-1-0.7-1.5-1h-2.5c-0.2-0.3-0.3-0.7-0.5-1h-0.5c-0.4-0.9-1.2-1.1-2-1.5h-4.5
		c-0.9,0.4-1.7,0.9-2.5,1.5h-1.5c0.3-1.8-2.9-2.6-4-3.5h-5.1c-2.1,1-4.3,2-6.1,3.5h-0.5c-0.3,0.3-0.7,0.7-1,1h-1
		c-0.3,0.3-0.7,0.7-1,1h-2c0-0.9-0.5-1.2-0.5-2h-0.5c-0.6-0.4-1.2-0.9-1.5-1.5h-3c-0.4,0.4-0.6,0.9-0.5,1.5h-0.5
		c-1-1.1-0.2-2.3,0-3.5c0.1-1.1,0.3-2.7-0.5-3.5c0.1-2.2-3.5-3.6-4.8-5.1c-0.3-0.4-1.8-2.3-1.8-2.8c0-1.1,1.2-1.4,1-2.8
		c-0.1-1.1-1.3-1.9-2-2.8c-0.7-0.9-1.2-2-1.5-3c-0.3-0.9-0.5-1.4-0.5-2.5c0-1,0.2-2-0.5-2.8c-0.2-0.3-0.3-0.7-0.5-1h-2.5
		c-0.3,0.3-0.7,0.7-1,1h-1.5c-0.4-0.4-0.6-0.9-0.5-1.5h-0.5c-1-1.7-1.3-3.4-2-5.1c-0.8-1.9-2-3.2-3-5.1h-2.5c-1.6,0.8-2.6,3.6-3,5.1
		c-0.5,1.6-1,3.6-2,5.1h-3.5c-0.9,0.4-1.7,0.9-2.5,1.5h-1c-1.2,2.2-2.7,3.4-3,5.8c-0.2,1.7,0.5,1.5,1.5,2.5c1,1,0.5,0,0.5,1
		c0,0.1-0.4,1.1-0.5,1.5c-0.1,0.9-0.1,2.1,0,3c0.2,1.1,1.1,1.7,1,3c-0.1,0.9-0.6,0.7-1,1.5c-0.2,0.3-0.3,1.3-0.5,1.5
		c-0.8,0.9-2.1,0.9-3,1.8h-3c-1.3,2.4-3.8,4.4-4,7.1h-0.5c0.2,1.1-1.1,1-1.5,2h-1c-0.9,0.8-1.9,1.1-3,1.5h-2
		c-3.1-1.5-6.9-2.8-9.6-5.1h-1c-1.2-0.6-2.3-1.1-3.5-1.5h-7.6c-0.8,0.4-1.6,0.7-2,1.5h-2c-0.7-0.3-1.3-0.7-2-1h-6.6
		c-0.3,0.3-0.7,0.7-1,1h-0.5c-1.2,2.1-3.3,2.9-4.5,5.1h-0.5c-1.1,2.3-2.9,4.1-4,6.3c-0.7,1.3-0.5,1.9-1.8,2.9c-1,0.8-2.6,2-3.3,3.2
		c-2.4,3.8-2.6,8.4-4,12.6c-0.8,2.3-1.6,4.1-2,6.6c-0.1,0.8-0.9,2.2-1,3c-0.2,1.3-0.1,2.1-0.5,3.3c-0.7,2.2-1.5,4.2-2.5,6.3
		c-0.5,1-0.8,2.1,0,3c0.6,0.8,3.2,1.2,2,2.3c0,0.2,0,0.3,0,0.5h-0.5c0.1,0.6-0.1,1.1-0.5,1.5c-0.7,1.5-1.6,2.1-0.3,3.5
		c1,1.1,2.5,1.4,3.8,2h0.5c0,1.8-0.3,3.8,0.5,5.3c0.4,0.8,0.1,0.6,1,1.1c0.3,0.2,1,0.1,1.3,0.3c0.4,0.5-0.3,1.7-0.8,2.3
		c-0.6,1.1-0.9,2-1.5,3c0,1.1-0.3,2.6,0.5,3.5h7.1c1.7-0.8,4.7-1.8,5.6-3.5h1c0,2.2,0.6,4.1,1.5,6.1h3c0,1.7,0.5,2.8,0.5,4.5
		c-0.1,0.9,0.6,1.3,1,2h-0.5c-1.1,0.4-2.2,0.7-3,1.5h-1c-0.7,1.4-2.7,1.9-3.5,3.3c-0.7,1.1-0.6,2.8-1.5,3.8c0,2.4,0,4.7,0,7.1
		c0,1.5,0.9,3.5,1.5,4.8c0.9,1.9,2.6,2.8,4.5,3.8h1.5c0,0.2,0,0.3,0,0.5h5.1c1.4,1.2-2.8,3.5-2.5,5.1h-0.5c0,0.2,0,0.3,0,0.5
		c-0.6,1.3-1.7,2.5-2,3.8c-0.4,1.4-0.3,2.6-0.5,4c-0.4,2.6-1.5,5.1-1.5,7.8c0.3,0.5,0.7,1,1,1.5h2.5c0.8-0.7,1.6-1.1,2.5-1.5h0.5
		c0,1.2,0,2.4,0,3.5c0,0.2,0,0.3,0,0.5c0.2,0.9-0.4,1.1-0.5,1.8c-0.1,0.6,0.1,1.2,0,1.8c-0.2,1.2-0.5,2.1-0.5,3.5
		c0.3,0.5,0.7,1,1,1.5h2.5c0.3-0.5,0.7-1,1-1.5h1c0.2,0.3,0.3,0.7,0.5,1h0.5c0,1.6-1.6,3.9-2.5,5.1c-1.2,1.5-2.5,3.3-3.5,5.1h-0.5
		c0,0.2,0,0.3,0,0.5c0,0.2,0,0.3,0,0.5h-0.5c-2.5,2.6,2.6,6.1,4.3,7.5c1.5,1.2,3.6,1.5,2.8,3.4c-0.5,1.3-1.8,2.2-1.5,3.8h-0.5
		c0,0.2,0,0.3,0,0.5s0,0.3,0,0.5s0,0.3,0,0.5c0,4,1.7,6,4.5,8.8c2.5,2.5,5.4,4.7,8.6,6.3c2.9,1.5,5.8,2.8,8.8,3.9
		c2.9,1,6.1,1.8,8.8,3.2h2c0.5,0.3,1,0.7,1.5,1h2c0,0.2,0,0.3,0,0.5h2c0,0.2,0,0.3,0,0.5h3c0,0.2,0,0.3,0,0.5h3.5c0,0.2,0,0.3,0,0.5
		h21.7c0-0.2,0-0.3,0-0.5h6.1c0-0.2,0-0.3,0-0.5h4.5c0-0.2,0-0.3,0-0.5h3.5c0-0.2,0-0.3,0-0.5h3c0.7-0.3,1.3-0.7,2-1h2.5
		c5.6-2.8,11.7-4.2,17.2-7.3c5.8-3.3,12.1-8.1,12.1-14.9c0-0.2,0-0.3,0-0.5s0-0.3,0-0.5s0-0.3,0-0.5s0-0.3,0-0.5h0.5
		c2.7-1.8,5.3-3.7,7.1-6.3c2.1-3.1,0.1-4.5-1.5-7.3c0-0.2,0-0.3,0-0.5h-0.5c0-0.2,0-0.3,0-0.5h-0.5c0-0.2,0-0.3,0-0.5
		c-1-1.8-1.6-3.2-2.3-5.1c-0.7-1.9-0.8-3.8-2.8-5.1c0-0.2,0-0.3,0-0.5h0.5c0.8-1.3,1.5-2.7,2-4c0.4-1.1,0.6-3.1,1.5-4
		c0-1.1-0.3-2.6,0.5-3.5h0.5c1.4,0.9,2.5,1.8,4,2.5h3c0.7-0.7,0.5-1.6,0.5-2.5c-1.2-2.6-3-4.8-3-7.8c0-1.5-0.4-2.5-0.5-4
		c-0.1-1.2-0.1-2.8-1-3.8c0-0.2,0-0.3,0-0.5h-0.5c-0.3-1.9-1.6-3.3-2.5-5.1c0-0.2,0-0.3,0-0.5h3c2.1-0.8,3.9-1.7,5.6-3.3
		c1-0.9,1.7-1.8,2.3-2.8c0.3-0.5,0.5-0.8,0.8-1.3c0.3-0.6-0.1-0.6,0.5-1.3c0-1.2,0-2.4,0-3.5c0-1.4-0.4-2.3-0.5-3.5
		c-0.1-1.2-0.7-2.5-1.3-3.5c-0.7-1.2-2-2.2-2.8-3.5h-1c-0.7-0.5-1.3-1-2-1.5h-6.6c-1,0.5-2,1-3,1.5h-1c0.3-0.5,0.7-1,1-1.5
		c0.4-0.7,1.1-1.1,1-2h1c0.3,0.5,0.7,1,1,1.5h1c0.6-0.4,1.2-0.9,1.5-1.5h0.5c-0.1-1.3,1.3-3.4,2-4.5c1.2-2.1,2.5-3.9,3.5-6.1
		c0.6-1.1,1.4-1.9,2-3h0.5c2.9,1.9,5.8,4,7.6,7.1h2c0.7-1.3,1.3-2.1,1.5-3.5c0.1-1.1,0-2.4,0-3.5c2.3-0.9,3.2-1.7,3.5-4
		c0.3-1.6,0-3.4,0-5.1h0.5c0.9,1.5,1.5,3,3,4h1.5c0.8-1.4,1-2.4,1-4h-0.5c0-1.2-0.2-1.8-0.5-2.8c-0.3-0.8-0.7-1.9-0.5-2.8h-0.5
		c0-0.2,0-0.3,0-0.5c-0.4-0.4-0.6-0.9-0.5-1.5h-0.5C-1446.3,634.4-1445,635.1-1443.8,633.8z M-1468.3,681c-0.2,1.6-2.4,2-3,3.3h-4
		c-3.5-1.4,1.9-6.3,3.5-7.1h1C-1469.7,677.9-1468.1,679.8-1468.3,681z M-1595.5,668.6h-0.5c-1-0.5-2.2-0.9-1-2h0.5
		C-1596.1,667.4-1595.4,667.7-1595.5,668.6z"/>
</g>
<image style="overflow:visible;" width="387" height="482" xlink:href="images/Layer 4.png"  transform="matrix(0.5051 0 0 0.5051 -1348.3315 540.543)">
</image>
<image style="overflow:visible;" width="368" height="468" xlink:href="images/Layer 3.png"  transform="matrix(0.5051 0 0 0.5051 868.791 -1121.6331)">
</image>
<g>
	
		<image style="overflow:visible;" width="446" height="503" xlink:href="1B199C86A5C0F6D3.png"  transform="matrix(0.75 0 0 0.75 252.1685 -651.2452)">
	</image>
	<path class="st33" d="M252.2-651.2c0,27.6,0,55.2,0,82.9c0,49,0,98,0,147c0,49.1,0,98.2,0,147.4h334.5c0-27.6,0-55.2,0-82.9
		c0-49,0-98,0-147c0-49.1,0-98.2,0-147.4H252.2z"/>
</g>
<g>
	
		<image style="overflow:visible;" width="446" height="503" xlink:href="1B199C86A5C0F6D1.png"  transform="matrix(0.75 0 0 0.75 144.1685 321.5047)">
	</image>
	<pattern  id="SVGID_23_" xlink:href="#pattern_2" patternTransform="matrix(1 0 0 1 -108 185.25)">
	</pattern>
	<path class="st34" d="M144.2,321.5c0,27.6,0,55.2,0,82.9c0,49,0,98,0,147c0,49.1,0,98.2,0,147.4h334.5c0-27.6,0-55.2,0-82.9
		c0-49,0-98,0-147c0-49.1,0-98.2,0-147.4H144.2z"/>
</g>
<image style="overflow:visible;" width="269" height="303" xlink:href="1B199C86A5C0F6CF.jpg"  transform="matrix(1.248 0 0 1.248 808.9565 -651.2452)">
</image>
<image style="overflow:visible;" width="226" height="256" xlink:href="1B199C86A5C0F6F1.jpg"  transform="matrix(1.485 0 0 1.485 1358.0585 -651.2452)">
</image>
<rect x="181.7" y="824.8" class="st0" width="873" height="297"/>
<text transform="matrix(1 0 0 1 181.6685 839.1542)"><pattern  id="SVGID_24_" xlink:href="#pattern" patternTransform="matrix(1 0 0 1 -9 27)">
</pattern>
<tspan x="0" y="0" class="st35 st36 st37">Harry James Potter (b. 31 July 1980) was a half-blood wizard, who was the only child and son of the </tspan><pattern  id="SVGID_25_" xlink:href="#pattern" patternTransform="matrix(1 0 0 1 -9 27)">
</pattern>
<tspan x="0" y="28.8" class="st38 st36 st37">late James and Lily Potter (née Evans), and one of the most famous wizards of modern times. In what </tspan><pattern  id="SVGID_26_" xlink:href="#pattern" patternTransform="matrix(1 0 0 1 -9 27)">
</pattern>
<tspan x="0" y="57.6" class="st39 st36 st37">proved to be a vain attempt to circumvent a prophecy that stated that a boy born at the end of July of </tspan><pattern  id="SVGID_27_" xlink:href="#pattern" patternTransform="matrix(1 0 0 1 -9 27)">
</pattern>
<tspan x="0" y="86.4" class="st40 st36 st37">1980 could be able to defeat him. Lord Voldemort tried to murder him when he was a year and three </tspan><pattern  id="SVGID_28_" xlink:href="#pattern" patternTransform="matrix(1 0 0 1 -9 27)">
</pattern>
<tspan x="0" y="115.2" class="st41 st36 st37">months old. Voldemort murdered Harry&apos;s parents as they tried to protect him, shortly before attack</tspan><pattern  id="SVGID_29_" xlink:href="#pattern" patternTransform="matrix(1 0 0 1 -9 27)">
</pattern>
<tspan x="846.1" y="115.2" class="st42 st36 st37">-</tspan><pattern  id="SVGID_30_" xlink:href="#pattern" patternTransform="matrix(1 0 0 1 -9 27)">
</pattern>
<tspan x="0" y="144" class="st43 st36 st37">ing Harry. This early unsuccessful attempt to vanquish Harry led to Voldemort&apos;s first downfall, mar</tspan><pattern  id="SVGID_31_" xlink:href="#pattern" patternTransform="matrix(1 0 0 1 -9 27)">
</pattern>
<tspan x="852.1" y="144" class="st44 st36 st37">-</tspan><pattern  id="SVGID_32_" xlink:href="#pattern" patternTransform="matrix(1 0 0 1 -9 27)">
</pattern>
<tspan x="0" y="172.8" class="st45 st36 st37">ing the end of the First Wizarding War and to Harry henceforth being known as the &quot;Boy Who Lived.&quot;</tspan></text>
<rect x="550.7" y="320.8" class="st0" width="549" height="441"/>
<text transform="matrix(1 0 0 1 550.6685 338.7547)"><tspan x="0" y="0" class="st46 st47 st48">Type of Wand:</tspan><tspan x="167" y="0" class="st46 st36 st48"> Phoenix Feather and Dragon </tspan><tspan x="0" y="36" class="st46 st36 st48">Heartstring</tspan><tspan x="0" y="72" class="st46 st47 st48">Pet of choice:</tspan><tspan x="149.8" y="72" class="st46 st36 st48"> Hedwig (Owl)</tspan><tspan x="0" y="108" class="st46 st47 st48">Patronus:</tspan><tspan x="110" y="108" class="st46 st36 st48"> Stag</tspan><tspan x="0" y="144" class="st46 st47 st48">Boggart:</tspan><tspan x="100.7" y="144" class="st46 st36 st48"> Dementor</tspan><tspan x="0" y="216" class="st46 st47 st48">Appears in:</tspan><tspan x="129.7" y="216" class="st46 st36 st48"> Sorcerer’s Stone, Chamber of Secrets, </tspan><tspan x="0" y="252" class="st46 st36 st48">Prisoner of Askaban, Goblet of Fire, Order of the </tspan><tspan x="0" y="288" class="st46 st36 st48">Phoenix, Half-Blood Prince, Deathly Hallows</tspan><tspan x="0" y="360" class="st46 st47 st48">Family Members:</tspan><tspan x="193.8" y="360" class="st46 st49 st48"> </tspan><tspan x="198.6" y="360" class="st46 st50 st48">Lily Potter, James Potter</tspan></text>
<g>
	<path id="Path_3" class="st51" d="M1349.4,789.5l161.4-86.5c19.2-10.3,42.2-10.1,61.2,0.5l154.6,85.8
		c20.3,11.3,32.9,32.7,32.9,55.9v104.5c0,35.3-28.6,63.9-63.9,63.9h-316.1c-35.3,0-63.9-28.6-63.9-63.9V845.9
		C1315.7,822.3,1328.6,800.7,1349.4,789.5z"/>
	<rect x="1342.7" y="880.9" class="st0" width="403.9" height="88.7"/>
	<text transform="matrix(1 0 0 1 1351.0098 962.6794)" class="st11 st52 st53">Gryffindor</text>
	<text transform="matrix(1 0 0 1 1458.668 962.6794)" class="st11 st52 st53">Slytherin</text>
	<g id="Group_5-2" transform="translate(-172 519)">
		<g id="Input_-_Entered_Value-3" transform="translate(1427 357)">
			<rect id="Rectangle_241-3" x="212.5" y="32" class="st0" width="43.2" height="51.9"/>
		</g>
	</g>
	<text transform="matrix(1 0 0 1 1556.9844 962.6794)" class="st11 st52 st53">Hufflepuff</text>
	<text transform="matrix(1 0 0 1 1659.5664 962.6794)" class="st11 st52 st53">Ravenclaw</text>
	<g id="Group_5-4" transform="translate(-172 519)">
		<g id="Input_-_Entered_Value-5" transform="translate(1427 357)">
			<rect id="Rectangle_241-5" x="418.6" y="32" class="st0" width="43.2" height="51.9"/>
		</g>
	</g>
	
		<image style="overflow:visible;" width="741" height="800" xlink:href="images/3278003_orig.png"  transform="matrix(0.1388 0 0 0.1388 1488.137 734.0853)">
	</image>
	<pattern  id="SVGID_33_" xlink:href="#pattern" patternTransform="matrix(1.27 0 0 0.8466 267.8468 -797.03)">
	</pattern>
	<path class="st54" d="M1387.1,928.4h-3.7c-5.3,0-9.6-4.3-9.6-9.6v-26.6c0-5.3,4.3-9.6,9.6-9.6h3.7c5.3,0,9.6,4.3,9.6,9.6v26.6
		C1396.7,924.1,1392.4,928.4,1387.1,928.4z"/>
	<pattern  id="SVGID_34_" xlink:href="#pattern" patternTransform="matrix(1.27 0 0 1.27 366.9045 2236.2971)">
	</pattern>
	<path class="st55" d="M1485.4,928.4h-2.1c-5.7,0-10.4-4.6-10.4-10.4v-47.8c0-5.7,4.6-10.4,10.4-10.4h2.1c5.7,0,10.4,4.6,10.4,10.4
		V918C1495.7,923.7,1491.1,928.4,1485.4,928.4z"/>
	<pattern  id="SVGID_35_" xlink:href="#pattern" patternTransform="matrix(1.27 0 0 1.0583 465.9622 1219.6844)">
	</pattern>
	<path class="st56" d="M1585.7,928.4h-4.7c-5,0-9.1-4.1-9.1-9.1v-39c0-5,4.1-9.1,9.1-9.1h4.7c5,0,9.1,4.1,9.1,9.1v39
		C1594.8,924.3,1590.7,928.4,1585.7,928.4z"/>
	<pattern  id="SVGID_36_" xlink:href="#pattern" patternTransform="matrix(1.27 0 0 0.635 565.0199 -2313.6936)">
	</pattern>
	<path class="st57" d="M1684.5,928.4h-4.1c-5.2,0-9.4-4.2-9.4-9.4v-15.5c0-5.2,4.2-9.4,9.4-9.4h4.1c5.2,0,9.4,4.2,9.4,9.4V919
		C1693.9,924.2,1689.6,928.4,1684.5,928.4z"/>
</g>
<g>
	<text transform="matrix(1 0 0 1 1438.9556 164.7552)" class="st1 st5 st58">Harry Potter</text>
	<text transform="matrix(1 0 0 1 1408.3813 164.7543)">	<pattern  id="SVGID_37_" xlink:href="#pattern_2" patternTransform="matrix(1.1324 0 0 1.1324 -461.5665 644.1381)">
	</pattern>
<tspan x="0" y="0" class="st59 st47 st60">Is</tspan>	<pattern  id="SVGID_38_" xlink:href="#pattern_2" patternTransform="matrix(1.1324 0 0 1.1324 -461.5665 644.1381)">
	</pattern>
<tspan x="20.7" y="0" class="st61 st47 st60 st62">	</tspan>	<pattern  id="SVGID_39_" xlink:href="#pattern_2" patternTransform="matrix(1.1324 0 0 1.1324 -461.5665 644.1381)">
	</pattern>
<tspan x="40.8" y="0" class="st63 st47 st60 st64">			</tspan>	<pattern  id="SVGID_40_" xlink:href="#pattern_2" patternTransform="matrix(1.1324 0 0 1.1324 -461.5665 644.1381)">
	</pattern>
<tspan x="163.1" y="0" class="st65 st47 st60">  </tspan>	<pattern  id="SVGID_41_" xlink:href="#pattern_2" patternTransform="matrix(1.1324 0 0 1.1324 -461.5665 644.1381)">
	</pattern>
<tspan x="174.8" y="0" class="st66 st47 st60 st67">	</tspan>	<pattern  id="SVGID_42_" xlink:href="#pattern_2" patternTransform="matrix(1.1324 0 0 1.1324 -461.5665 644.1381)">
	</pattern>
<tspan x="203.8" y="0" class="st68 st47 st60">your </tspan>	<pattern  id="SVGID_43_" xlink:href="#pattern_2" patternTransform="matrix(1.1324 0 0 1.1324 -461.5665 644.1381)">
	</pattern>
<tspan x="0" y="40.8" class="st69 st47 st60"> favorite character?</tspan></text>
</g>
<g>
	<text transform="matrix(1 0 0 1 1468.4541 353.1207)" class="st1 st5 st70">Gryffindor</text>
	<text transform="matrix(1 0 0 1 1409.4573 353.1207)">	<pattern  id="SVGID_44_" xlink:href="#pattern_2" patternTransform="matrix(1 0 0 1 243.7888 13.3659)">
	</pattern>
<tspan x="0" y="0" class="st71 st47 st48">Give</tspan>	<pattern  id="SVGID_45_" xlink:href="#pattern_2" patternTransform="matrix(1 0 0 1 243.7888 13.3659)">
	</pattern>
<tspan x="51.9" y="0" class="st72 st47 st48 st62">	</tspan>	<pattern  id="SVGID_46_" xlink:href="#pattern_2" patternTransform="matrix(1 0 0 1 243.7888 13.3659)">
	</pattern>
<tspan x="72" y="0" class="st73 st47 st48 st74">			</tspan>	<pattern  id="SVGID_47_" xlink:href="#pattern_2" patternTransform="matrix(1 0 0 1 243.7888 13.3659)">
	</pattern>
<tspan x="180" y="0" class="st75 st47 st48">  points </tspan>	<pattern  id="SVGID_48_" xlink:href="#pattern_2" patternTransform="matrix(1 0 0 1 243.7888 13.3659)">
	</pattern>
<tspan x="0" y="36" class="st76 st47 st48">    for the house cup!</tspan></text>
</g>
<rect x="1468.8" y="470.4" class="st0" width="126" height="55.1"/>
<text transform="matrix(1 0 0 1 1468.835 514.7889)" class="st51 st77 st8">+ 10</text>
<path class="st78" d="M1588.8,547.2h-104.4c-18,0-32.6-14.6-32.6-32.6v-29c0-18,14.6-32.6,32.6-32.6h104.4c18,0,32.6,14.6,32.6,32.6
	v29C1621.4,532.6,1606.8,547.2,1588.8,547.2z"/>
</svg>
